<svg xmlns="http://www.w3.org/2000/svg" viewBox="0 0 821 269" width="821" height="269"><path fill-rule="evenodd" d="M103.76 266.38 C79.66 262.01 59.56 248.40 51.08 230.70 C46.12 220.36 44.89 215.65 44.67 206.11 L44.50 198.50 L73.00 198.50 L101.50 198.50 L101.50 211.50 L101.50 224.50 L94.25 224.79 C88.70 225.02 87.00 225.43 87.00 226.54 C87.00 227.79 92.65 228.00 127.00 228.00 C161.30 228.00 167.00 227.79 167.00 226.55 C167.00 225.46 165.41 225.02 160.75 224.80 L154.50 224.50 L154.24 182.25 C154.09 157.50 154.35 140.00 154.88 140.00 C156.69 140.00 168.91 144.07 174.40 146.50 C199.08 157.41 210.00 173.67 210.00 199.50 C210.00 218.05 204.86 230.12 191.02 244.10 C178.75 256.49 165.31 263.43 147.50 266.58 C137.44 268.36 114.11 268.25 103.76 266.38 Z M613.38 231.64 C584.72 224.40 575.83 185.62 598.22 165.49 C604.83 159.55 611.97 157.00 622.00 157.00 C632.08 157.00 639.81 159.74 645.71 165.41 L649.98 169.50 L644.57 175.50 L639.17 181.50 L635.83 178.37 C631.13 173.96 628.85 173.00 623.02 173.00 C614.08 173.00 608.26 177.84 605.41 187.66 C602.25 198.52 606.52 210.08 615.38 214.69 C621.92 218.09 632.93 215.44 635.77 209.78 C638.68 203.99 638.22 203.53 629.25 203.21 L621.00 202.92 L621.00 196.44 L621.00 189.95 L638.25 190.23 L655.50 190.50 L655.49 199.50 C655.48 207.32 655.12 209.25 652.69 214.21 C646.03 227.80 628.67 235.50 613.38 231.64 Z M264.00 194.41 L264.00 157.83 L280.25 158.16 C295.40 158.48 296.80 158.67 300.95 161.00 C307.00 164.40 309.38 168.75 309.37 176.41 C309.36 182.68 308.25 185.85 304.70 189.75 C303.58 190.98 302.85 192.11 303.08 192.25 C303.31 192.39 305.30 193.46 307.50 194.64 C318.12 200.35 318.92 218.75 308.86 226.23 C303.26 230.39 299.74 231.00 281.35 231.00 L264.00 231.00 L264.00 194.41 Z M342.00 215.05 L342.00 199.10 L329.40 180.30 C322.48 169.96 316.38 160.71 315.87 159.75 C315.00 158.14 315.73 158.00 325.21 158.02 L335.50 158.04 L342.41 168.56 C346.21 174.35 349.64 179.28 350.04 179.52 C350.43 179.77 354.02 175.02 358.01 168.98 L365.27 158.00 L375.14 158.00 C380.56 158.00 385.00 158.34 385.00 158.75 C385.00 159.16 379.15 168.28 372.00 179.00 L359.00 198.50 L359.00 214.75 L359.00 231.00 L350.50 231.00 L342.00 231.00 L342.00 215.05 Z M421.00 206.01 L421.00 181.02 L415.55 184.51 C412.55 186.43 409.85 188.00 409.55 188.00 C409.25 188.00 409.00 184.23 409.00 179.62 L409.00 171.25 L419.49 164.62 C427.91 159.30 430.77 158.00 433.99 158.00 L438.00 158.00 L438.00 194.50 L438.00 231.00 L429.50 231.00 L421.00 231.00 L421.00 206.01 Z M472.00 194.50 L472.00 157.82 L487.75 158.17 C502.64 158.49 503.84 158.67 509.78 161.41 C537.63 174.24 537.88 214.85 510.20 227.83 C504.89 230.32 503.40 230.52 488.25 230.84 L472.00 231.17 L472.00 194.50 Z M537.00 194.50 L537.00 158.00 L558.50 158.00 L580.00 158.00 L580.00 165.50 L580.00 173.00 L567.50 173.00 L555.00 173.00 L555.00 180.00 L555.00 187.00 L567.00 187.00 L579.00 187.00 L579.00 194.50 L579.00 202.00 L567.00 202.00 L555.00 202.00 L555.00 209.00 L555.00 216.00 L567.50 216.00 L580.00 216.00 L580.00 223.50 L580.00 231.00 L558.50 231.00 L537.00 231.00 L537.00 194.50 Z M662.00 194.50 L662.00 158.00 L677.75 158.01 C694.55 158.01 698.77 158.70 704.09 162.28 C716.72 170.79 715.22 192.59 701.52 199.77 L698.23 201.50 L710.06 215.50 C716.57 223.20 721.92 229.84 721.95 230.25 C721.98 230.66 717.28 231.00 711.51 231.00 L701.02 231.00 L693.26 221.21 C688.99 215.83 684.28 209.86 682.80 207.96 L680.09 204.50 L680.05 217.75 L680.00 231.00 L671.00 231.00 L662.00 231.00 L662.00 194.50 Z M725.00 194.48 L725.00 157.96 L746.25 158.23 L767.50 158.50 L767.50 165.50 L767.50 172.50 L755.00 173.00 L742.50 173.50 L742.50 180.00 L742.50 186.50 L754.25 186.78 L766.00 187.06 L766.00 194.50 L766.00 201.94 L754.25 202.22 L742.50 202.50 L742.50 209.00 L742.50 215.50 L755.00 216.00 L767.50 216.50 L767.79 223.75 L768.09 231.00 L746.54 231.00 L725.00 231.00 L725.00 194.48 Z M776.00 194.50 L776.00 158.00 L797.50 158.00 L819.00 158.00 L819.00 165.50 L819.00 173.00 L806.50 173.00 L794.00 173.00 L794.00 180.00 L794.00 187.00 L806.00 187.00 L818.00 187.00 L818.00 194.50 L818.00 202.00 L806.00 202.00 L794.00 202.00 L794.00 208.97 L794.00 215.94 L806.25 216.22 L818.50 216.50 L818.79 223.75 L819.09 231.00 L797.54 231.00 L776.00 231.00 L776.00 194.50 Z M295.84 214.33 C297.64 212.29 298.05 210.95 297.59 208.59 C296.67 203.81 293.72 202.00 286.89 202.00 L281.00 202.00 L281.00 209.33 C281.00 213.37 281.34 217.01 281.75 217.43 C282.16 217.85 284.98 217.93 288.00 217.59 C292.24 217.12 294.04 216.38 295.84 214.33 Z M498.61 214.52 C507.22 211.97 512.00 204.76 512.00 194.35 C512.00 183.13 505.31 175.22 494.98 174.22 L490.00 173.75 L490.00 194.87 C490.00 218.82 489.32 217.28 498.61 214.52 Z M191.00 200.50 C191.00 195.43 189.86 194.65 188.43 198.73 C187.70 200.80 187.83 201.87 188.98 203.15 C189.82 204.08 190.61 204.87 190.75 204.92 C190.89 204.96 191.00 202.97 191.00 200.50 Z M187.31 190.07 C187.03 189.01 186.17 187.90 185.40 187.60 C184.30 187.18 184.34 187.60 185.61 189.53 C187.56 192.50 187.98 192.64 187.31 190.07 Z M176.98 188.48 C176.28 187.64 175.45 187.21 175.14 187.53 C174.82 187.85 175.22 188.53 176.03 189.04 C178.15 190.38 178.42 190.21 176.98 188.48 Z M692.19 187.02 C694.16 184.59 694.58 178.96 693.02 176.04 C691.90 173.94 687.01 172.00 682.85 172.00 L680.00 172.00 L680.00 181.13 L680.00 190.25 L685.19 189.76 C688.96 189.39 690.87 188.65 692.19 187.02 Z M290.55 183.55 C295.74 178.35 292.17 172.00 284.07 172.00 L281.00 172.00 L281.00 179.00 L281.00 186.00 L284.55 186.00 C286.98 186.00 288.86 185.23 290.55 183.55 Z M91.00 167.11 C68.14 158.54 56.00 149.42 49.58 136.03 C41.28 118.71 42.49 93.48 52.44 76.52 C55.07 72.02 64.09 62.85 70.54 58.10 C76.36 53.83 87.51 48.49 95.50 46.16 C119.37 39.20 151.45 41.27 171.24 51.05 C184.90 57.80 197.00 69.53 201.25 80.15 C204.12 87.33 207.00 99.99 207.00 105.46 L207.00 109.00 L180.34 109.00 L153.69 109.00 L154.30 92.00 C154.63 82.65 154.73 75.00 154.51 75.00 C152.54 75.00 107.65 90.33 100.50 93.44 C98.85 94.16 95.36 95.54 92.75 96.51 C90.14 97.48 88.00 98.89 88.00 99.64 C88.00 101.42 88.62 101.37 95.39 99.04 C99.61 97.59 101.19 97.39 101.49 98.29 C101.70 98.95 101.79 115.24 101.69 134.49 C101.53 164.72 101.30 169.50 100.00 169.70 C99.17 169.82 95.12 168.66 91.00 167.11 Z M216.50 96.34 C213.26 95.47 209.04 90.86 207.85 86.89 C204.86 76.90 211.91 68.00 222.82 68.00 C230.20 68.00 236.99 75.12 237.00 82.86 C237.00 86.76 233.77 93.04 230.80 94.89 C228.56 96.29 219.67 97.20 216.50 96.34 Z M226.00 87.00 C230.01 82.99 227.35 77.00 221.55 77.00 C217.54 77.00 216.00 78.57 216.00 82.64 C216.00 88.25 222.10 90.90 226.00 87.00 Z M94.50 66.53 C96.35 65.23 96.23 65.16 93.00 65.65 C88.39 66.36 86.07 68.15 88.62 69.04 C89.61 69.39 90.90 69.28 91.47 68.80 C92.03 68.32 93.40 67.30 94.50 66.53 Z M104.00 66.00 C104.00 65.45 102.76 65.04 101.25 65.10 L98.50 65.20 L101.00 66.00 C102.38 66.44 103.61 66.85 103.75 66.90 C103.89 66.96 104.00 66.55 104.00 66.00 Z" fill="#1F497D"/><path fill-rule="evenodd" d="M289.50 135.36 C279.99 133.92 263.62 126.79 262.38 123.55 C262.01 122.60 268.81 109.79 271.62 106.13 C271.77 105.93 274.22 107.19 277.06 108.94 C288.04 115.70 296.47 117.50 303.45 114.58 C309.15 112.20 310.72 106.45 306.97 101.69 C305.85 100.27 299.80 96.60 293.53 93.54 C275.19 84.59 269.18 76.84 270.24 63.54 C271.10 52.83 276.75 45.32 287.73 40.27 C294.59 37.12 306.54 36.99 316.03 39.95 C323.09 42.15 329.00 45.37 329.00 47.01 C329.00 47.84 322.40 61.77 321.54 62.76 C321.41 62.91 318.80 61.88 315.73 60.48 C306.22 56.12 297.06 55.94 292.97 60.03 C290.49 62.51 290.36 68.12 292.75 70.25 C293.71 71.11 300.20 74.58 307.16 77.97 C317.33 82.91 320.82 85.18 324.91 89.50 C331.00 95.94 332.16 98.64 332.13 106.33 C332.07 119.98 324.85 129.59 311.69 133.50 C306.44 135.06 294.26 136.08 289.50 135.36 Z M335.48 129.28 C335.79 126.65 337.59 107.18 339.50 86.00 C341.40 64.82 343.22 45.59 343.54 43.25 L344.12 39.00 L355.31 39.01 L366.50 39.02 L370.90 50.76 C381.00 77.70 387.34 93.06 388.07 92.30 C388.50 91.86 392.27 82.50 396.46 71.50 C400.65 60.50 405.13 48.80 406.43 45.50 L408.79 39.50 L420.20 39.22 L431.61 38.94 L435.42 81.22 C437.52 104.47 439.40 123.68 439.60 123.90 C440.13 124.48 442.79 118.13 459.57 76.24 L474.50 38.98 L484.39 39.24 L494.29 39.50 L504.24 64.00 C509.72 77.47 518.37 98.75 523.47 111.28 L532.73 134.06 L521.12 133.78 L509.52 133.50 L506.01 124.25 L502.50 115.00 L484.40 115.00 L466.30 115.00 L462.88 124.25 L459.47 133.50 L439.35 133.77 L419.23 134.04 L418.66 129.77 C418.34 127.42 417.36 115.60 416.47 103.50 C415.59 91.40 414.55 80.69 414.17 79.70 C413.70 78.48 410.35 86.74 403.84 105.20 L394.20 132.50 L387.75 132.79 L381.30 133.08 L379.20 127.29 C378.04 124.11 373.95 112.39 370.10 101.25 C366.25 90.12 362.64 80.22 362.08 79.25 C361.19 77.72 361.05 77.81 360.95 80.00 C360.89 81.38 359.87 93.97 358.67 108.00 L356.50 133.50 L345.71 133.78 L334.92 134.07 L335.48 129.28 Z M534.00 86.50 L534.00 39.00 L552.45 39.00 C573.44 39.00 578.62 39.82 586.11 44.31 C593.90 48.98 597.20 54.82 597.79 64.91 C598.53 77.71 594.16 86.63 584.48 92.10 L579.10 95.14 L590.80 109.19 C597.23 116.93 604.45 125.67 606.83 128.63 L611.16 134.00 L597.73 134.00 L584.30 134.00 L569.90 115.34 L555.50 96.67 L555.23 115.34 L554.96 134.00 L544.48 134.00 L534.00 134.00 L534.00 86.50 Z M630.00 96.03 L630.00 58.07 L618.75 57.78 L607.50 57.50 L607.18 52.50 C607.00 49.75 607.14 45.59 607.49 43.25 L608.12 39.00 L641.06 39.00 L674.00 39.00 L674.00 48.47 L674.00 57.93 L662.75 58.22 L651.50 58.50 L651.24 96.25 L650.98 134.00 L640.49 134.00 L630.00 134.00 L630.00 96.03 Z M679.00 86.50 L679.00 39.00 L706.00 39.00 L733.00 39.00 L733.00 48.50 L733.00 58.00 L717.00 58.00 L701.00 58.00 L701.00 67.47 L701.00 76.95 L716.25 77.22 L731.50 77.50 L731.50 86.50 L731.50 95.50 L716.25 95.78 L701.00 96.05 L701.00 105.53 L701.00 115.00 L717.00 115.00 L733.00 115.00 L733.00 124.50 L733.00 134.00 L706.00 134.00 L679.00 134.00 L679.00 86.50 Z M743.00 86.41 L743.00 38.83 L764.25 39.24 C787.74 39.69 791.45 40.45 798.44 46.21 C804.26 51.00 806.98 57.80 806.98 67.50 C806.98 73.80 806.48 76.57 804.63 80.56 C802.17 85.83 795.21 92.66 791.28 93.65 C790.02 93.96 789.00 94.58 789.00 95.03 C789.00 95.47 795.98 104.23 804.50 114.48 C813.02 124.74 820.00 133.32 820.00 133.56 C820.00 133.80 814.04 133.99 806.75 133.99 L793.50 133.98 L779.00 115.24 L764.50 96.50 L764.23 115.25 L763.96 134.00 L753.48 134.00 L743.00 134.00 L743.00 86.41 Z M207.55 118.75 C207.93 117.51 209.98 112.00 212.12 106.50 L216.02 96.50 L222.00 96.50 L227.99 96.50 L231.85 106.50 C233.98 112.00 236.04 117.51 236.43 118.75 L237.13 121.00 L222.00 121.00 L206.87 121.00 L207.55 118.75 Z M495.00 95.58 C495.00 94.11 484.69 68.98 484.26 69.41 C483.60 70.07 474.01 94.23 474.00 95.25 C474.00 95.66 478.73 96.00 484.50 96.00 C490.27 96.00 495.00 95.81 495.00 95.58 Z M570.00 79.25 C574.98 76.76 577.05 70.74 574.97 64.84 C572.92 59.03 569.61 56.90 561.62 56.26 L555.00 55.73 L555.00 68.36 L555.00 81.00 L560.75 81.00 C564.22 81.00 567.89 80.30 570.00 79.25 Z M778.99 79.25 C784.84 76.31 786.68 69.35 783.43 62.49 C781.49 58.40 777.31 56.54 770.00 56.52 L764.50 56.50 L764.22 68.75 L763.94 81.00 L769.72 81.00 C773.22 81.00 776.87 80.31 778.99 79.25 Z M30.50 58.92 C15.65 53.43 2.83 48.67 2.00 48.36 C0.16 47.67 -3.53 49.15 43.50 31.81 C98.65 11.47 125.06 2.00 126.58 2.00 C127.32 2.00 137.73 5.56 149.71 9.90 C172.36 18.11 245.63 45.08 250.00 46.81 L252.50 47.79 L250.00 48.74 C248.62 49.25 242.21 51.60 235.75 53.95 L224.00 58.22 L224.00 63.11 C224.00 67.33 223.73 68.00 222.00 68.00 C220.33 68.00 220.00 67.33 220.00 64.00 C220.00 61.80 219.86 60.00 219.69 60.00 C219.53 60.00 213.83 62.05 207.04 64.57 L194.69 69.13 L189.10 63.72 C182.49 57.33 179.18 54.98 171.33 51.10 C151.45 41.27 119.43 39.19 95.50 46.16 C82.84 49.85 69.82 57.35 62.05 65.42 C60.16 67.39 58.36 68.98 58.05 68.96 C57.75 68.94 45.35 64.42 30.50 58.92 Z" fill="#0C0C0C"/></svg>