<svg xmlns="http://www.w3.org/2000/svg" viewBox="0 0 425 446" width="425" height="446"><path fill-rule="evenodd" d="M198.00 445.30 C166.31 442.84 142.23 435.41 121.14 421.59 C92.80 403.03 77.43 376.22 75.20 341.49 L74.47 330.00 L122.23 330.00 L170.00 330.00 L170.00 351.50 L170.00 373.00 L157.50 373.00 L145.00 373.00 L145.00 376.01 L145.00 379.01 L212.25 378.76 L279.50 378.50 L279.81 375.79 L280.13 373.07 L269.81 372.79 L259.50 372.50 L259.27 302.25 C259.07 241.54 259.24 232.00 260.48 232.00 C261.28 232.00 264.08 232.73 266.72 233.62 C269.35 234.52 271.95 235.35 272.50 235.47 C273.05 235.59 274.85 236.25 276.50 236.93 C278.15 237.61 282.20 239.20 285.50 240.46 C300.92 246.35 316.91 255.75 326.16 264.38 C348.35 285.06 357.11 323.33 347.90 359.38 C344.72 371.85 334.39 391.98 331.95 390.47 C331.44 390.15 331.25 390.50 331.54 391.24 C332.20 392.97 325.17 401.22 323.76 400.35 C323.11 399.95 322.98 400.17 323.44 400.90 C324.25 402.21 310.33 415.93 303.50 420.57 C298.36 424.05 283.38 432.16 279.00 433.82 C254.48 443.15 224.67 447.37 198.00 445.30 Z M322.52 348.40 C321.69 346.80 321.01 346.07 321.01 346.76 C321.00 348.14 323.23 352.10 323.73 351.60 C323.90 351.44 323.36 349.99 322.52 348.40 Z M324.66 345.75 C324.38 345.06 324.16 345.62 324.16 347.00 C324.16 348.38 324.38 348.94 324.66 348.25 C324.94 347.56 324.94 346.44 324.66 345.75 Z M319.80 339.25 C319.76 338.29 320.05 336.15 320.44 334.50 C320.98 332.24 320.90 331.87 320.10 333.00 C319.25 334.18 319.01 333.76 318.92 331.00 C318.79 327.23 317.28 321.52 317.07 324.00 C316.82 326.90 315.26 322.79 314.52 317.25 C314.13 314.36 313.43 312.24 312.95 312.53 C312.48 312.82 311.37 311.81 310.48 310.28 C309.60 308.75 309.11 308.29 309.40 309.25 C309.70 310.21 309.48 311.00 308.92 311.00 C308.36 311.00 308.99 312.46 310.33 314.25 C313.24 318.15 315.42 324.50 314.42 326.13 C313.99 326.82 314.12 327.04 314.73 326.67 C315.30 326.31 316.02 326.95 316.31 328.09 C316.74 329.71 316.49 330.02 315.18 329.52 C313.83 329.01 313.75 329.13 314.75 330.14 C315.44 330.83 316.00 332.03 316.00 332.81 C316.00 333.85 315.53 333.72 314.25 332.34 C313.29 331.30 312.84 330.89 313.25 331.43 C314.43 332.96 314.13 334.19 312.75 333.46 C312.06 333.09 312.97 334.00 314.76 335.48 C316.55 336.95 317.72 338.64 317.36 339.23 C316.96 339.87 317.16 340.02 317.85 339.60 C318.48 339.20 319.00 339.36 319.00 339.94 C319.00 340.52 319.20 341.00 319.44 341.00 C319.68 341.00 319.84 340.21 319.80 339.25 Z M310.00 326.62 C310.00 326.41 309.21 325.63 308.25 324.87 C306.66 323.63 306.63 323.66 307.87 325.25 C309.18 326.92 310.00 327.45 310.00 326.62 Z M312.60 324.75 C313.00 324.06 312.95 323.83 312.50 324.24 C312.05 324.65 310.97 324.42 310.09 323.74 C308.68 322.64 308.66 322.70 309.87 324.25 C311.51 326.34 311.67 326.37 312.60 324.75 Z M319.93 321.25 C319.88 318.12 319.61 317.14 319.12 318.38 C318.42 320.16 318.80 326.00 319.61 326.00 C319.83 326.00 319.97 323.86 319.93 321.25 Z M326.88 320.75 C326.77 316.85 326.71 316.75 326.07 319.50 C325.69 321.15 325.56 323.06 325.79 323.75 C326.59 326.12 327.00 324.99 326.88 320.75 Z M305.00 321.62 C305.00 321.41 304.21 320.63 303.25 319.87 C301.66 318.63 301.63 318.66 302.87 320.25 C304.18 321.92 305.00 322.45 305.00 321.62 Z M316.66 314.75 C316.38 314.06 316.16 314.62 316.16 316.00 C316.16 317.38 316.38 317.94 316.66 317.25 C316.94 316.56 316.94 315.44 316.66 314.75 Z M299.98 314.48 C299.28 313.64 298.51 313.16 298.25 313.42 C298.00 313.67 296.85 313.01 295.70 311.94 C293.48 309.87 292.00 309.45 292.00 310.88 C292.00 312.18 296.90 315.18 297.96 314.53 C298.46 314.22 299.14 314.42 299.49 314.98 C299.84 315.54 300.37 316.00 300.68 316.00 C300.99 316.00 300.68 315.31 299.98 314.48 Z M326.66 312.75 C326.38 312.06 326.16 312.62 326.16 314.00 C326.16 315.38 326.38 315.94 326.66 315.25 C326.94 314.56 326.94 313.44 326.66 312.75 Z M319.71 308.76 C319.47 307.52 319.26 308.30 319.25 310.50 C319.24 312.70 319.44 313.72 319.69 312.76 C319.94 311.81 319.95 310.01 319.71 308.76 Z M312.00 307.29 C310.91 305.59 310.88 305.59 311.42 307.33 C311.74 308.34 312.04 309.69 312.08 310.33 C312.14 311.17 312.29 311.16 312.65 310.29 C312.92 309.62 312.63 308.27 312.00 307.29 Z M325.66 306.75 C325.38 306.06 325.16 306.62 325.16 308.00 C325.16 309.38 325.38 309.94 325.66 309.25 C325.94 308.56 325.94 307.44 325.66 306.75 Z M306.00 307.62 C306.00 307.41 305.21 306.63 304.25 305.87 C302.66 304.63 302.63 304.66 303.87 306.25 C305.18 307.92 306.00 308.45 306.00 307.62 Z M322.66 303.75 C322.38 303.06 322.16 303.62 322.16 305.00 C322.16 306.38 322.38 306.94 322.66 306.25 C322.94 305.56 322.94 304.44 322.66 303.75 Z M324.66 301.75 C324.38 301.06 324.16 301.62 324.16 303.00 C324.16 304.38 324.38 304.94 324.66 304.25 C324.94 303.56 324.94 302.44 324.66 301.75 Z M321.68 299.81 C321.36 299.01 321.13 299.25 321.08 300.42 C321.04 301.47 321.27 302.06 321.60 301.73 C321.94 301.40 321.97 300.53 321.68 299.81 Z M308.09 299.17 C307.55 298.16 306.32 296.70 305.36 295.92 C304.28 295.04 304.52 295.74 306.00 297.75 C308.62 301.34 309.61 302.00 308.09 299.17 Z M323.68 297.81 C323.36 297.01 323.13 297.25 323.08 298.42 C323.04 299.47 323.27 300.06 323.60 299.73 C323.94 299.40 323.97 298.53 323.68 297.81 Z M317.68 296.81 C317.36 296.01 317.13 296.25 317.08 297.42 C317.04 298.47 317.27 299.06 317.60 298.73 C317.94 298.40 317.97 297.53 317.68 296.81 Z M320.81 296.47 C320.50 296.17 319.94 296.72 319.56 297.71 C319.02 299.13 319.14 299.25 320.12 298.27 C320.81 297.59 321.11 296.78 320.81 296.47 Z M301.00 295.70 C301.00 295.53 299.31 293.84 297.25 291.95 L293.50 288.50 L296.95 292.25 C300.15 295.74 301.00 296.46 301.00 295.70 Z M292.67 287.44 C292.67 285.83 287.25 282.42 286.26 283.41 C285.95 283.72 287.23 284.63 289.10 285.45 C290.97 286.26 292.14 286.94 291.69 286.96 C291.25 286.98 291.16 287.45 291.50 288.00 C292.36 289.40 292.67 289.25 292.67 287.44 Z M314.35 284.83 C312.32 282.59 311.00 282.48 311.00 284.56 C311.00 285.42 311.45 285.84 312.00 285.50 C312.55 285.16 313.00 285.28 313.00 285.77 C313.00 286.27 313.68 286.67 314.50 286.67 C315.79 286.67 315.76 286.40 314.35 284.83 Z M319.12 284.73 C318.14 283.75 318.02 283.87 318.56 285.29 C318.94 286.28 319.50 286.83 319.81 286.53 C320.11 286.22 319.81 285.41 319.12 284.73 Z M168.49 281.01 C168.84 280.45 168.45 280.27 167.59 280.60 C165.42 281.43 141.57 272.74 128.92 266.51 C113.92 259.11 105.56 253.41 98.00 245.42 C94.42 241.64 91.05 238.69 90.50 238.86 C89.95 239.03 89.80 238.86 90.18 238.49 C90.55 238.12 89.38 235.49 87.58 232.66 C83.02 225.49 78.46 213.10 76.46 202.48 C74.14 190.13 74.86 163.94 77.83 152.81 C80.39 143.24 84.53 132.75 87.82 127.51 C89.20 125.31 90.33 122.97 90.33 122.30 C90.33 121.63 90.61 121.26 90.96 121.47 C91.30 121.69 92.91 119.88 94.54 117.45 C96.17 115.03 97.80 113.03 98.17 113.02 C98.54 113.01 102.14 109.82 106.17 105.93 C135.13 78.01 176.48 65.28 226.54 68.88 C255.43 70.96 279.46 77.83 298.00 89.33 C307.44 95.19 315.93 102.23 320.48 107.97 C322.67 110.74 324.92 113.01 325.48 113.03 C327.47 113.08 335.99 129.15 339.36 139.20 C341.67 146.07 344.72 162.28 345.47 171.73 L346.13 179.96 L304.82 180.23 C282.09 180.38 262.42 180.35 261.09 180.16 L258.68 179.82 L259.32 151.39 L259.96 122.97 L257.42 123.43 C254.52 123.95 240.82 128.32 236.43 130.11 C234.82 130.77 233.02 131.41 232.44 131.54 C230.58 131.94 171.72 152.83 150.37 160.66 C146.30 162.16 146.26 162.23 147.26 165.49 L148.28 168.81 L154.75 166.37 C158.32 165.03 162.81 163.27 164.74 162.46 C166.67 161.66 168.64 161.00 169.12 161.00 C169.62 161.00 170.00 187.44 170.00 221.50 C170.00 263.41 169.67 282.00 168.94 282.00 C168.36 282.00 168.16 281.56 168.49 281.01 Z M97.73 191.27 C97.51 189.20 97.33 190.65 97.33 194.50 C97.32 198.35 97.50 200.05 97.72 198.27 C97.94 196.50 97.95 193.35 97.73 191.27 Z M345.65 200.25 C345.40 199.84 356.70 199.63 370.76 199.78 C390.74 200.01 396.52 199.79 397.15 198.78 C397.75 197.84 397.97 197.96 397.98 199.25 C398.00 200.87 396.10 201.00 372.06 201.00 C357.79 201.00 345.91 200.66 345.65 200.25 Z M98.68 176.81 C98.36 176.01 98.13 176.25 98.08 177.42 C98.04 178.47 98.27 179.06 98.60 178.73 C98.94 178.40 98.97 177.53 98.68 176.81 Z M99.68 170.81 C99.36 170.01 99.13 170.25 99.08 171.42 C99.04 172.47 99.27 173.06 99.60 172.73 C99.94 172.40 99.97 171.53 99.68 170.81 Z M358.03 165.50 C358.03 164.95 358.47 163.82 359.00 163.00 C359.53 162.18 359.97 161.95 359.97 162.50 C359.97 163.05 359.53 164.18 359.00 165.00 C358.47 165.82 358.03 166.05 358.03 165.50 Z M363.17 159.06 C358.57 157.90 352.98 153.17 350.01 147.91 C348.06 144.47 347.51 142.08 347.51 137.00 C347.50 126.32 351.50 119.25 360.25 114.43 C364.71 111.97 366.51 111.55 372.22 111.69 C379.62 111.86 387.67 115.32 390.41 119.51 C391.21 120.72 392.49 122.35 393.25 123.11 C394.02 123.87 394.68 124.72 394.72 125.00 C394.76 125.28 395.32 127.49 395.98 129.93 C398.37 138.78 394.79 149.67 387.67 155.20 C385.38 156.99 383.27 158.68 383.00 158.97 C382.14 159.87 366.68 159.94 363.17 159.06 Z M379.15 143.00 C386.61 135.19 377.61 121.37 368.13 126.10 C364.32 128.00 361.97 130.14 362.58 131.13 C362.88 131.61 362.64 132.00 362.06 132.00 C361.48 132.00 361.00 133.94 361.00 136.31 C361.00 145.92 372.36 150.11 379.15 143.00 Z M180.58 121.46 C178.43 119.56 176.18 118.01 175.58 118.02 C174.99 118.02 175.18 118.47 176.00 119.00 C177.21 119.78 177.23 119.97 176.10 119.98 C174.26 120.00 181.05 124.82 183.00 124.87 C183.84 124.90 182.77 123.39 180.58 121.46 Z M210.00 116.79 C210.00 115.74 208.84 115.82 207.01 116.97 C205.84 117.71 206.00 117.88 207.76 117.74 C208.99 117.65 210.00 117.22 210.00 116.79 Z M202.49 116.01 C202.84 115.44 202.44 115.28 201.55 115.62 C199.82 116.28 199.50 117.00 200.94 117.00 C201.46 117.00 202.16 116.56 202.49 116.01 Z M153.75 114.75 C153.61 114.06 152.82 113.19 152.00 112.82 C151.02 112.38 151.48 112.12 153.31 112.07 C154.85 112.03 155.86 111.58 155.55 111.07 C154.72 109.74 165.17 108.64 172.37 109.30 C176.20 109.66 177.75 109.55 176.50 109.01 C174.59 108.18 174.60 108.14 176.75 108.07 C177.99 108.03 179.00 107.64 179.00 107.20 C179.00 106.76 177.31 106.52 175.25 106.67 C172.60 106.86 172.15 106.73 173.72 106.22 L175.95 105.50 L173.56 104.38 C171.71 103.52 171.27 103.55 171.64 104.50 C171.94 105.28 170.46 106.15 167.61 106.87 C161.80 108.33 159.99 108.34 162.00 106.89 C163.26 105.98 163.22 105.91 161.75 106.41 C160.79 106.73 159.25 107.30 158.34 107.67 C157.16 108.14 156.90 107.97 157.45 107.09 C157.96 106.25 157.19 106.37 155.16 107.42 C150.70 109.72 150.08 109.35 153.50 106.41 L156.50 103.83 L153.50 105.87 C151.85 106.98 149.15 109.03 147.50 110.41 C144.88 112.61 144.75 112.93 146.50 112.98 C147.60 113.01 149.62 113.65 151.00 114.42 C152.38 115.18 153.61 115.85 153.75 115.90 C153.89 115.96 153.89 115.44 153.75 114.75 Z M207.50 115.00 C207.16 114.45 206.12 114.01 205.19 114.02 C203.73 114.03 203.71 114.16 205.00 115.00 C206.96 116.27 208.28 116.27 207.50 115.00 Z M137.50 112.99 C134.38 112.33 133.00 112.60 133.00 113.86 C133.00 114.27 134.69 114.38 136.75 114.11 L140.50 113.62 L137.50 112.99 Z M91.50 111.46 C89.00 110.26 88.92 110.12 91.00 110.63 C93.83 111.32 97.02 112.95 95.50 112.92 C94.95 112.92 93.15 112.26 91.50 111.46 Z M330.00 112.00 C330.82 111.47 331.95 111.03 332.50 111.03 C333.05 111.03 332.82 111.47 332.00 112.00 C331.18 112.53 330.05 112.97 329.50 112.97 C328.95 112.97 329.18 112.53 330.00 112.00 Z M138.50 110.00 C139.50 108.90 140.08 108.00 139.81 108.00 C139.53 108.00 138.50 108.90 137.50 110.00 C136.50 111.10 135.92 112.00 136.19 112.00 C136.47 112.00 137.50 111.10 138.50 110.00 Z M375.15 103.25 C375.07 98.71 375.34 95.00 375.75 95.00 C376.16 95.00 376.37 97.59 376.22 100.75 C375.72 110.78 375.30 111.77 375.15 103.25 Z M199.50 109.00 C199.16 108.45 198.35 108.01 197.69 108.02 C196.98 108.02 197.10 108.42 198.00 109.00 C199.92 110.24 200.27 110.24 199.50 109.00 Z M82.00 108.00 C81.17 107.47 80.95 107.03 81.50 107.03 C82.05 107.03 83.17 107.47 84.00 108.00 C84.83 108.53 85.05 108.97 84.50 108.97 C83.95 108.97 82.83 108.53 82.00 108.00 Z M195.00 107.00 C194.18 106.47 193.05 106.03 192.50 106.03 C191.95 106.03 192.18 106.47 193.00 107.00 C193.82 107.53 194.95 107.97 195.50 107.97 C196.05 107.97 195.82 107.53 195.00 107.00 Z M74.00 105.00 C73.17 104.47 72.95 104.03 73.50 104.03 C74.05 104.03 75.17 104.47 76.00 105.00 C76.83 105.53 77.05 105.97 76.50 105.97 C75.95 105.97 74.83 105.53 74.00 105.00 Z M166.00 105.56 C166.00 105.32 165.55 104.84 165.00 104.50 C164.45 104.16 164.00 104.36 164.00 104.94 C164.00 105.52 164.45 106.00 165.00 106.00 C165.55 106.00 166.00 105.80 166.00 105.56 Z M190.27 105.34 C189.59 105.07 188.24 105.05 187.27 105.31 C186.30 105.56 186.85 105.78 188.50 105.81 C190.15 105.83 190.95 105.62 190.27 105.34 Z M349.00 105.00 C349.82 104.47 350.95 104.03 351.50 104.03 C352.05 104.03 351.82 104.47 351.00 105.00 C350.18 105.53 349.05 105.97 348.50 105.97 C347.95 105.97 348.18 105.53 349.00 105.00 Z M183.75 104.31 C182.79 104.06 181.21 104.06 180.25 104.31 C179.29 104.56 180.07 104.77 182.00 104.77 C183.93 104.77 184.71 104.56 183.75 104.31 Z M199.00 94.61 C199.00 93.24 194.25 91.42 193.26 92.40 C192.99 92.68 193.94 93.20 195.38 93.56 C196.81 93.92 197.74 94.62 197.43 95.11 C197.13 95.60 197.36 96.00 197.94 96.00 C198.52 96.00 199.00 95.37 199.00 94.61 Z M190.25 94.34 C189.56 94.06 188.44 94.06 187.75 94.34 C187.06 94.62 187.62 94.84 189.00 94.84 C190.38 94.84 190.94 94.62 190.25 94.34 Z M179.73 93.40 C179.40 93.06 178.53 93.03 177.81 93.32 C177.01 93.64 177.25 93.87 178.42 93.92 C179.47 93.96 180.06 93.73 179.73 93.40 Z M185.25 92.34 C184.56 92.06 183.44 92.06 182.75 92.34 C182.06 92.62 182.62 92.84 184.00 92.84 C185.38 92.84 185.94 92.62 185.25 92.34 Z M181.73 90.40 C181.40 90.06 180.53 90.03 179.81 90.32 C179.01 90.64 179.25 90.87 180.42 90.92 C181.47 90.96 182.06 90.73 181.73 90.40 Z M390.00 90.00 C390.82 89.47 391.95 89.03 392.50 89.03 C393.05 89.03 392.82 89.47 392.00 90.00 C391.18 90.53 390.05 90.97 389.50 90.97 C388.95 90.97 389.18 90.53 390.00 90.00 Z M188.25 89.34 C187.56 89.06 186.44 89.06 185.75 89.34 C185.06 89.62 185.62 89.84 187.00 89.84 C188.38 89.84 188.94 89.62 188.25 89.34 Z M198.76 88.31 C197.81 88.06 196.01 88.05 194.76 88.29 C193.52 88.53 194.30 88.74 196.50 88.75 C198.70 88.76 199.72 88.56 198.76 88.31 Z M30.00 66.00 C30.82 65.47 31.95 65.03 32.50 65.03 C33.05 65.03 32.83 65.47 32.00 66.00 C31.18 66.53 30.05 66.97 29.50 66.97 C28.95 66.97 29.18 66.53 30.00 66.00 Z M52.00 58.00 C52.83 57.47 53.95 57.03 54.50 57.03 C55.05 57.03 54.83 57.47 54.00 58.00 C53.17 58.53 52.05 58.97 51.50 58.97 C50.95 58.97 51.17 58.53 52.00 58.00 Z M338.00 46.00 C337.18 45.47 336.95 45.03 337.50 45.03 C338.05 45.03 339.18 45.47 340.00 46.00 C340.82 46.53 341.05 46.97 340.50 46.97 C339.95 46.97 338.82 46.53 338.00 46.00 Z M330.00 43.00 C329.18 42.47 328.95 42.03 329.50 42.03 C330.05 42.03 331.18 42.47 332.00 43.00 C332.82 43.53 333.05 43.97 332.50 43.97 C331.95 43.97 330.82 43.53 330.00 43.00 Z M134.00 28.00 C134.82 27.47 135.95 27.03 136.50 27.03 C137.05 27.03 136.82 27.47 136.00 28.00 C135.18 28.53 134.05 28.97 133.50 28.97 C132.95 28.97 133.18 28.53 134.00 28.00 Z M286.00 27.00 C285.18 26.47 284.95 26.03 285.50 26.03 C286.05 26.03 287.18 26.47 288.00 27.00 C288.82 27.53 289.05 27.97 288.50 27.97 C287.95 27.97 286.82 27.53 286.00 27.00 Z M237.00 9.00 C236.18 8.47 235.95 8.03 236.50 8.03 C237.05 8.03 238.18 8.47 239.00 9.00 C239.82 9.53 240.05 9.97 239.50 9.97 C238.95 9.97 237.82 9.53 237.00 9.00 Z" fill="#1F497D"/><path fill-rule="evenodd" d="M346.00 199.57 C346.00 199.33 348.97 191.34 352.59 181.82 C356.22 172.29 359.60 163.36 360.11 161.98 C361.03 159.48 361.17 159.45 371.68 159.56 L382.32 159.66 L389.66 179.01 C393.70 189.66 397.00 198.73 397.00 199.18 C397.00 199.63 385.52 200.00 371.50 200.00 C357.48 200.00 346.00 199.80 346.00 199.57 Z M82.50 107.56 C74.80 104.68 53.30 96.78 34.73 90.01 C16.16 83.24 1.10 77.57 1.27 77.40 C1.57 77.10 40.71 62.75 158.08 19.93 L212.65 0.02 L249.58 13.60 C269.88 21.06 294.38 30.03 304.00 33.51 C313.62 37.00 334.55 44.65 350.50 50.51 C366.45 56.37 389.39 64.76 401.49 69.15 C413.58 73.55 423.60 77.27 423.75 77.42 C423.91 77.58 413.00 81.70 399.52 86.59 L375.00 95.47 L375.00 103.23 L375.00 111.00 L371.55 111.00 L368.09 111.00 L367.80 104.61 L367.50 98.22 L347.50 105.60 C336.50 109.66 326.82 112.98 325.98 112.99 C325.14 112.99 322.67 110.74 320.48 107.97 C315.93 102.23 307.44 95.19 298.00 89.33 C279.46 77.83 255.43 70.96 226.54 68.88 C176.48 65.28 135.13 78.01 106.17 105.93 C102.14 109.82 98.32 112.96 97.67 112.90 C97.03 112.85 90.20 110.45 82.50 107.56 Z" fill="#0C0C0C"/></svg>